<svg width="315" height="315" viewBox="0 0 315 315" fill="none" xmlns="http://www.w3.org/2000/svg">
<path fill-rule="evenodd" clip-rule="evenodd" d="M157.5 26C140.178 26 123.638 29.3494 108.492 35.4358L88.7928 15.7365C109.556 5.65458 132.868 0 157.5 0C244.485 0 315 70.5152 315 157.5C315 184.878 308.015 210.624 295.729 233.053C295.907 234.008 296 234.993 296 236V282.027C296 290.863 288.837 298.027 280 298.027H264.86L220 253.166V236.207C202.843 249.849 181.123 258 157.5 258C101.995 258 57 213.005 57 157.5C57 133.889 65.1422 112.18 78.7718 95.0267H41.7589C31.7069 113.61 26 134.889 26 157.5C26 230.125 84.8746 289 157.5 289C174.338 289 190.437 285.835 205.234 280.068L225.006 299.84C204.547 309.561 181.658 315 157.5 315C70.5152 315 0 244.485 0 157.5C0 130.125 6.98389 104.382 19.2671 81.9537C19.0917 81.0047 19 80.0264 19 79.0267V33C19 24.1635 26.1634 17 35 17H48.3887L95 63.6113V78.793C112.157 65.1506 133.877 57 157.5 57C213.005 57 258 101.995 258 157.5C258 181.123 249.849 202.843 236.207 220H273.227C283.288 201.41 289 180.122 289 157.5C289 84.8746 230.125 26 157.5 26ZM45 43V69.0267H69V43H45ZM232 157.5C232 198.645 198.645 232 157.5 232C116.355 232 83 198.645 83 157.5C83 116.355 116.355 83 157.5 83C198.645 83 232 116.355 232 157.5ZM246 246V272.027H270V246H246Z" fill="#9FE88D"/>
<path fill-rule="evenodd" clip-rule="evenodd" d="M157.5 26C140.178 26 123.638 29.3494 108.492 35.4358L88.7928 15.7365C109.556 5.65458 132.868 0 157.5 0C244.485 0 315 70.5152 315 157.5C315 184.878 308.015 210.624 295.729 233.053C295.907 234.008 296 234.993 296 236V282.027C296 290.863 288.837 298.027 280 298.027H264.86L220 253.166V236.207C202.843 249.849 181.123 258 157.5 258C101.995 258 57 213.005 57 157.5C57 133.889 65.1422 112.18 78.7718 95.0267H41.7589C31.7069 113.61 26 134.889 26 157.5C26 230.125 84.8746 289 157.5 289C174.338 289 190.437 285.835 205.234 280.068L225.006 299.84C204.547 309.561 181.658 315 157.5 315C70.5152 315 0 244.485 0 157.5C0 130.125 6.98389 104.382 19.2671 81.9537C19.0917 81.0047 19 80.0264 19 79.0267V33C19 24.1635 26.1634 17 35 17H48.3887L95 63.6113V78.793C112.157 65.1506 133.877 57 157.5 57C213.005 57 258 101.995 258 157.5C258 181.123 249.849 202.843 236.207 220H273.227C283.288 201.41 289 180.122 289 157.5C289 84.8746 230.125 26 157.5 26ZM45 43V69.0267H69V43H45ZM232 157.5C232 198.645 198.645 232 157.5 232C116.355 232 83 198.645 83 157.5C83 116.355 116.355 83 157.5 83C198.645 83 232 116.355 232 157.5ZM246 246V272.027H270V246H246Z" fill="#9FE88D"/>
</svg>
