<svg width="1031" height="1010" viewBox="0 0 1031 1010" fill="none" xmlns="http://www.w3.org/2000/svg">
<path d="M437.478 256.108C433.497 216.566 437.078 183.188 448.137 156.85C452.957 144.756 459.951 133.851 468.702 124.785C477.452 115.719 487.78 108.678 499.069 104.082C522.239 94.456 550.169 93.4634 582.186 101.127C615.34 109.183 651.401 126.011 689.379 151.425C729.817 178.885 767.357 211.167 801.311 247.682C836.596 285.232 868.644 326.271 897.045 370.277C924.334 412.054 947.673 456.766 966.703 503.721C985.007 549.657 996.192 592.984 1000.28 632.525C1004.36 672.067 1000.66 705.445 989.62 731.783C978.941 757.174 961.816 774.948 938.667 784.551C915.518 794.154 887.567 795.169 855.55 787.506C822.417 779.588 786.335 762.668 748.357 737.277C707.962 709.79 670.459 677.501 636.53 640.997C601.244 603.447 569.197 562.408 540.796 518.402C513.503 476.628 490.163 431.916 471.138 384.958C452.855 339.045 441.649 295.695 437.584 256.154L437.478 256.108ZM436.236 255.277C452.581 417.805 592.381 634.233 748.504 738.662C904.628 843.09 1017.85 795.954 1001.42 633.425C984.986 470.897 845.376 254.469 689.252 150.017C533.128 45.5658 419.806 92.6786 436.13 255.23L436.236 255.277Z" stroke="white" stroke-width="55"/>
<path d="M406.872 183.926C419.51 146.139 438.91 117.769 464.46 99.6028C489.168 82.0827 518.573 74.7422 551.853 77.8123C585.134 80.8824 620.647 94.2014 657.382 117.423C695.402 141.453 733.064 175.131 769.356 217.373C806.639 261.169 839.264 309.46 866.607 361.32C893.498 411.803 915.388 465.29 931.905 520.871C947.997 575.347 957.35 627.862 959.73 676.96C962.194 727.743 957.034 772.732 944.374 810.519C931.715 848.306 912.358 876.652 886.786 894.819C862.1 912.362 832.695 919.679 799.414 916.609C766.134 913.539 730.62 900.22 693.885 876.998C655.971 852.969 618.183 819.29 581.911 777.048C544.641 733.278 512.029 685.009 484.702 633.171C457.821 582.683 435.931 529.197 419.405 473.62C403.333 419.143 393.981 366.629 391.601 317.531C389.137 266.748 394.297 221.759 406.935 183.995L406.872 183.926ZM405.672 182.495C353.602 337.706 432.359 604.524 581.511 778.364C730.663 952.203 893.737 967.277 945.722 811.996C997.707 656.716 918.951 389.897 769.715 216.058C620.479 42.218 457.593 27.1447 405.608 182.425L405.672 182.495Z" stroke="white" stroke-width="34"/>
<path d="M399.582 116.638C428.819 86.6298 462.773 68.1632 500.688 61.8384C537.233 55.7445 575.78 61.1229 615.295 77.8582C654.811 94.5935 693.231 121.716 729.608 158.811C767.227 197.106 800.95 244.219 829.786 298.857C858.741 353.77 880.972 412.623 895.905 473.896C910.228 531.35 917.468 590.647 917.432 650.206C917.18 707.798 909.428 760.751 894.431 807.633C878.886 856.108 856.179 895.996 827.027 926.027C797.875 956.058 763.836 974.502 725.922 980.826C689.376 986.92 650.809 981.542 611.314 964.807C571.82 948.071 533.379 920.949 497.002 883.854C459.361 845.559 425.659 798.446 396.802 743.808C367.858 688.9 345.615 630.066 330.641 568.815C316.341 511.356 309.101 452.063 309.114 392.505C309.388 334.913 317.118 281.937 332.137 235.078C347.682 186.603 370.388 146.715 399.54 116.684L399.582 116.638ZM398.529 114.745C278.467 238.194 277.14 520.317 395.707 744.916C514.274 969.516 707.807 1051.44 827.933 927.989C948.059 804.54 949.365 522.371 830.798 297.795C712.23 73.2185 518.697 -8.74996 398.571 114.699L398.529 114.745Z" stroke="white" stroke-width="21"/>
<path d="M410.034 63.3624C452.826 44.1815 499.42 37.4619 545.283 43.8571C590.275 49.9511 634.341 67.7251 676.278 96.6714C718.216 125.618 755.941 164.305 788.337 211.626C822.638 262.21 849.131 318.621 866.757 378.61C885.133 439.698 894.636 503.571 894.919 567.892C895.382 627.686 886.929 687.162 869.895 743.97C853.044 799.093 828.758 847.36 797.563 887.386C765.272 928.82 727.021 959.59 683.819 978.819C641.029 998.038 594.425 1004.78 548.548 998.393C503.577 992.322 459.491 974.548 417.553 945.602C375.616 916.656 337.891 877.968 305.495 830.648C271.193 780.064 244.701 723.653 227.075 663.664C208.702 602.575 199.199 538.702 198.913 474.382C198.454 414.603 206.906 355.143 223.936 298.349C240.787 243.204 265.074 194.96 296.269 154.933C328.56 113.499 366.811 82.7292 410.013 63.4778L410.034 63.3624ZM409.36 61.308C231.92 140.276 149.624 410.326 225.579 664.333C301.535 918.341 507.011 1060.21 684.493 981.081C861.975 901.952 944.25 631.948 868.295 377.94C792.339 123.933 586.863 -17.775 409.381 61.1926L409.36 61.308Z" stroke="white" stroke-width="13"/>
<path d="M429.035 26.8215C482.144 18.3578 536.306 22.9388 587.602 40.2328C638.4 57.4184 685.501 85.6849 726.074 123.332C768.297 162.237 803.497 209.464 829.855 262.57C886.368 376.8 902.984 509.676 876.595 636.356C864.239 695.654 841.987 751.938 810.961 802.37C781.202 851.101 742.869 892.835 698.207 925.127C653.351 957.533 602.521 978.69 549.344 987.089C496.167 995.488 441.954 990.922 390.572 973.717C339.77 956.526 292.663 928.26 252.079 890.618C209.882 851.724 174.697 804.523 148.34 751.449C91.8173 637.215 75.1799 504.336 101.537 377.64C113.895 318.354 136.139 262.08 167.15 211.649C196.922 162.915 235.261 121.175 279.925 88.8691C324.852 56.4038 375.768 35.2163 429.035 26.8215V26.8215ZM428.761 24.5132C209.425 59.2072 58.6515 303.312 91.9531 569.761C125.255 836.211 329.972 1024.08 549.371 989.391C768.77 954.697 919.481 710.615 886.158 444.189C852.835 177.763 648.076 -10.1347 428.761 24.5363V24.5132Z" stroke="white" stroke-width="8"/>
<path d="M447.443 5.30832C534.959 5.23326 620.527 33.6188 693.313 86.8707C766.099 140.123 822.829 215.846 856.319 304.452C889.81 393.059 898.555 490.563 881.448 584.62C864.34 678.676 822.149 765.055 760.217 832.818C714.044 883.338 658.244 922.038 596.817 946.145C535.39 970.252 469.857 979.168 404.915 972.254C339.974 965.341 277.232 942.768 221.188 906.155C165.143 869.542 117.184 819.795 80.7472 760.48C44.3106 701.165 20.2992 633.751 10.4341 563.07C0.568936 492.39 5.09442 420.192 23.6861 351.653C42.2779 283.115 74.4754 219.932 117.971 166.634C161.466 113.336 215.182 71.2434 275.269 43.3725C329.739 18.1197 388.299 5.17324 447.443 5.30832V5.30832ZM447.443 3C201.988 3 3 221.067 3 490.055C3 759.044 201.988 977.111 447.443 977.111C692.898 977.111 891.886 759.044 891.886 490.055C891.886 221.067 692.898 3 447.443 3Z" stroke="white" stroke-width="5"/>
</svg>
